<?xml version="1.0" encoding="utf-8"?><svg viewBox="0 0 100 100" xmlns="http://www.w3.org/2000/svg" width="200px" height="200px" xmlns:xlink="http://www.w3.org/1999/xlink" style="width:100%;height:100%;background-color:rgb(241, 242, 243);animation-play-state:paused" ><g class="ldl-scale" style="transform-origin:50% 50% 0px;transform:rotate(0deg) scale(0.8);animation-play-state:paused" ><linearGradient y2="79.344" x2="50" y1="22.624" x1="50" gradientUnits="userSpaceOnUse" id="a" style="animation-play-state:paused" ><stop stop-color="#f47e60" offset="0" style="stop-color:rgb(147, 219, 233);fill:rgb(59, 67, 104);animation-play-state:paused" ></stop>
<stop stop-color="#e15b64" offset=".509" style="stop-color:rgb(104, 156, 197);fill:rgb(59, 67, 104);animation-play-state:paused" ></stop>
<stop stop-color="#f47e60" offset="1" style="stop-color:rgb(147, 219, 233);fill:rgb(59, 67, 104);animation-play-state:paused" ></stop></linearGradient>
<circle stroke-miterlimit="10" stroke-width="3" stroke="#c33737" fill="url(#a)" r="40" cy="50" cx="50" style="stroke:rgb(94, 111, 163);animation-play-state:paused" ></circle>
<path stroke-miterlimit="10" stroke-linejoin="round" stroke-linecap="round" stroke-width="5" stroke="#000" fill="none" d="M29 68.75c14.444-12.111 28.889-12.111 43.333 0" style="stroke:rgb(59, 67, 104);animation-play-state:paused" ></path>
<g style="animation-play-state:paused" ><path d="M40.301 37.513a20.7 20.7 0 0 1 .059 1.57c0 5.845-2.435 10.583-5.44 10.583-3.004 0-5.44-4.738-5.44-10.583 0-3.313.782-6.27 2.007-8.211" style="fill:rgb(59, 67, 104);animation-play-state:paused" ></path>
<path d="M27.591 27.935L43.45 39.886" stroke-miterlimit="10" stroke-linejoin="round" stroke-linecap="round" stroke-width="5" stroke="#000" fill="none" style="stroke:rgb(59, 67, 104);animation-play-state:paused" ></path></g>
<g style="animation-play-state:paused" ><path d="M59.199 37.513a20.7 20.7 0 0 0-.059 1.57c0 5.845 2.435 10.583 5.44 10.583 3.004 0 5.44-4.738 5.44-10.583 0-3.313-.782-6.27-2.007-8.211" style="fill:rgb(59, 67, 104);animation-play-state:paused" ></path>
<path d="M71.909 27.935L56.05 39.886" stroke-miterlimit="10" stroke-linejoin="round" stroke-linecap="round" stroke-width="5" stroke="#000" fill="none" style="stroke:rgb(59, 67, 104);animation-play-state:paused" ></path></g>
<metadata xmlns:d="https://loading.io/stock/" style="animation-play-state:paused" ><d:name style="animation-play-state:paused" >upset</d:name>


<d:tags style="animation-play-state:paused" >upset,angry,dislike,disagree,sad,hate,pissed off,annoy,sulk,mad,wrath</d:tags>


<d:license style="animation-play-state:paused" >by</d:license>


<d:slug style="animation-play-state:paused" >cbwzdw</d:slug></metadata></g><!-- generated by https://loading.io/ --></svg>