<svg xmlns="http://www.w3.org/2000/svg" width="1074.127" height="103.549" viewBox="0 0 1074.127 103.549">
  <g id="Groupe_378" data-name="Groupe 378" transform="translate(-278 -868)">
    <g id="firefighter-helmet" transform="translate(497.331 869.651)">
      <g id="Groupe_374" data-name="Groupe 374" transform="translate(19.4 5.913)">
        <path id="Tracé_5" data-name="Tracé 5" d="M120.1,67.8a23.948,23.948,0,0,1-3.579-12.6V52.7a2.91,2.91,0,0,1,2.91-2.91V30.479A20.4,20.4,0,0,0,101,50.756v13.58a2.91,2.91,0,0,0,2.11,2.8,102.952,102.952,0,0,0,19.108,3.578A23.966,23.966,0,0,1,120.1,67.8Z" transform="translate(-101 -30.479)" fill="#939393"/>
        <path id="Tracé_6" data-name="Tracé 6" d="M211,141.218a18.032,18.032,0,0,0,8.729,15.353,18.032,18.032,0,0,0,8.729-15.353A17.335,17.335,0,0,1,219.732,137,17.334,17.334,0,0,1,211,141.218Z" transform="translate(-189.663 -116.335)" fill="#939393"/>
        <path id="Tracé_7" data-name="Tracé 7" d="M304.414,30.479V49.786a2.91,2.91,0,0,1,2.91,2.91V55.2a23.914,23.914,0,0,1-5.7,15.51,102.943,102.943,0,0,0,19.108-3.578,2.91,2.91,0,0,0,2.11-2.8V50.756A20.4,20.4,0,0,0,304.414,30.479Z" transform="translate(-262.705 -30.479)" fill="#939393"/>
      </g>
      <ellipse id="Ellipse_1" data-name="Ellipse 1" cx="5.5" cy="6" rx="5.5" ry="6" transform="translate(43.669 87.349)" fill="#939393"/>
      <g id="Groupe_375" data-name="Groupe 375" transform="translate(17.5 65.971)">
        <path id="Tracé_8" data-name="Tracé 8" d="M325.493,341.482a26.3,26.3,0,0,1-15.554,21.025,11.567,11.567,0,0,1,1.176,5.093c0,.244-.01.486-.025.727a32.007,32.007,0,0,0,20.355-28.262C329.547,340.588,327.558,341.06,325.493,341.482Z" transform="translate(-267.506 -340.065)" fill="#939393"/>
        <path id="Tracé_9" data-name="Tracé 9" d="M112.711,362.507a26.3,26.3,0,0,1-15.554-21.025c-2.065-.421-4.054-.894-5.951-1.417a32.007,32.007,0,0,0,20.355,28.262c-.015-.241-.025-.482-.025-.727A11.567,11.567,0,0,1,112.711,362.507Z" transform="translate(-91.206 -340.065)" fill="#939393"/>
      </g>
      <path id="Tracé_10" data-name="Tracé 10" d="M86.358,167.912v7.195a8.767,8.767,0,0,1-6.332,8.394,106.125,106.125,0,0,1-59.115,0,8.767,8.767,0,0,1-6.332-8.394v-7.195C5.757,171.225,1,175.727,1,180.927c0,3.889,2.711,9.429,15.627,13.735,9.083,3.027,21.1,4.695,33.842,4.695s24.76-1.667,33.842-4.695c12.915-4.305,15.627-9.845,15.627-13.735C99.938,175.727,95.181,171.225,86.358,167.912Z" transform="translate(-1 -135.338)" fill="#939393"/>
      <g id="Groupe_376" data-name="Groupe 376" transform="translate(43.649)">
        <path id="Tracé_11" data-name="Tracé 11" d="M229.081,21.05l.5-.6a2.91,2.91,0,0,1,4.471,0l.5.6a11.589,11.589,0,0,0,3.081,2.6V2.91A2.91,2.91,0,0,0,234.73,0h-5.82A2.91,2.91,0,0,0,226,2.91V23.651a11.592,11.592,0,0,0,3.081-2.6Z" transform="translate(-226)" fill="#939393"/>
      </g>
    </g>
    <g id="internet" transform="translate(753.259 872.128)">
      <g id="Groupe_377" data-name="Groupe 377">
        <path id="Tracé_12" data-name="Tracé 12" d="M49.535,99.07a4.359,4.359,0,0,1-4.354-4.354q0-.116.006-.23L20.822,84.394a4.351,4.351,0,1,1,1.119-2.911q0,.116-.006.23L46.3,91.805a4.348,4.348,0,0,1,6.47,0L77.135,81.713c0-.076-.006-.153-.006-.23a4.359,4.359,0,1,1,1.119,2.911L53.883,94.486c0,.076.006.153.006.23A4.359,4.359,0,0,1,49.535,99.07Zm0-5.8a1.451,1.451,0,1,0,1.451,1.451A1.453,1.453,0,0,0,49.535,93.265ZM81.483,80.032a1.451,1.451,0,1,0,1.451,1.451A1.453,1.453,0,0,0,81.483,80.032Zm-63.9,0a1.451,1.451,0,1,0,1.451,1.451A1.453,1.453,0,0,0,17.587,80.032Zm31.948,1.624a32.12,32.12,0,1,1,17.59-59,1.451,1.451,0,0,1-1.592,2.427,29.1,29.1,0,0,0-5.172-2.693,25.828,25.828,0,0,1,3.616,4.705,33.308,33.308,0,0,1,1.882,3.575h5.993a30.051,30.051,0,0,0-2.317-2.433,1.451,1.451,0,0,1,1.987-2.115A32.12,32.12,0,0,1,49.535,81.655ZM50.986,68.4V78.648c3.925-.566,7.614-3.421,10.513-8.182q.606-.995,1.146-2.066Zm-14.561,0q.54,1.07,1.145,2.066c2.9,4.761,6.587,7.616,10.513,8.182V68.4Zm29.434,0a33.327,33.327,0,0,1-1.882,3.575,25.853,25.853,0,0,1-3.6,4.693A29.364,29.364,0,0,0,71.829,68.4H65.86Zm-38.619,0A29.36,29.36,0,0,0,38.7,76.669a25.853,25.853,0,0,1-3.6-4.693A33.306,33.306,0,0,1,33.21,68.4H27.241Zm39.79-2.9H74a29.038,29.038,0,0,0,4.721-14.512H69.639A47.308,47.308,0,0,1,67.031,65.5Zm-16.044,0H63.935a43.715,43.715,0,0,0,2.8-14.512H50.986Zm-15.851,0H48.084V50.986H32.334A43.715,43.715,0,0,0,35.135,65.5Zm-10.061,0h6.966a47.3,47.3,0,0,1-2.608-14.512H20.353A29.038,29.038,0,0,0,25.073,65.5ZM69.639,48.084h9.079a28.86,28.86,0,0,0-4.691-14.512h-7A47.308,47.308,0,0,1,69.639,48.084Zm-18.653,0H66.735a43.705,43.705,0,0,0-2.8-14.512H50.986v3.386a1.451,1.451,0,0,1-2.9,0V33.572H35.135a43.715,43.715,0,0,0-2.8,14.512H48.084V42.763a1.451,1.451,0,0,1,2.9,0Zm-30.633,0h9.078a47.308,47.308,0,0,1,2.608-14.512H25.073A29.038,29.038,0,0,0,20.353,48.084ZM50.986,30.669H62.644Q62.1,29.6,61.5,28.6c-2.9-4.761-6.587-7.616-10.513-8.182Zm-14.561,0H48.084V20.421c-3.925.566-7.614,3.421-10.513,8.182Q36.965,29.6,36.426,30.669Zm-9.185,0H33.21a33.325,33.325,0,0,1,1.882-3.575A25.852,25.852,0,0,1,38.7,22.4a29.362,29.362,0,0,0-11.455,8.268Zm57.37,44.711a1.452,1.452,0,0,1-1.34-2.007l8.534-20.6a4.348,4.348,0,0,1,0-6.47L81.713,21.935c-.076,0-.153.006-.23.006a4.359,4.359,0,1,1,2.911-1.119L94.486,45.187c.076,0,.153-.006.23-.006a4.354,4.354,0,1,1,0,8.707q-.116,0-.23-.006l-8.534,20.6A1.452,1.452,0,0,1,84.611,75.381Zm10.1-27.3a1.451,1.451,0,1,0,1.451,1.451,1.453,1.453,0,0,0-1.451-1.451ZM81.483,16.136a1.451,1.451,0,1,0,1.451,1.451A1.453,1.453,0,0,0,81.483,16.136ZM14.459,75.381a1.452,1.452,0,0,1-1.341-.9l-8.534-20.6c-.076,0-.153.006-.23.006a4.354,4.354,0,1,1,0-8.707q.116,0,.23.006L14.676,20.822a4.352,4.352,0,1,1,6.146-6.146L45.187,4.584c0-.076-.006-.153-.006-.23a4.354,4.354,0,1,1,8.707,0q0,.116-.006.23l20.63,8.545A1.451,1.451,0,0,1,73.4,15.811L52.77,7.264a4.348,4.348,0,0,1-6.47,0L21.934,17.357c0,.076.006.153.006.23a4.359,4.359,0,0,1-4.354,4.354q-.116,0-.23-.006L7.264,46.3a4.348,4.348,0,0,1,0,6.47l8.534,20.6a1.452,1.452,0,0,1-1.34,2.007Zm-10.1-27.3A1.451,1.451,0,1,0,5.8,49.535a1.453,1.453,0,0,0-1.451-1.451ZM17.587,16.136a1.451,1.451,0,1,0,1.451,1.451A1.453,1.453,0,0,0,17.587,16.136ZM49.535,2.9a1.451,1.451,0,1,0,1.451,1.451A1.453,1.453,0,0,0,49.535,2.9Z" transform="translate(0 0)" fill="#939393"/>
      </g>
    </g>
    <g id="translation" transform="translate(1007.984 874.605)">
      <path id="Tracé_13" data-name="Tracé 13" d="M88.67,33.958H62.136c.084-.931.13-1.873.13-2.826A31.141,31.141,0,0,0,15.577,4.159a1.887,1.887,0,1,0,1.888,3.267A27.362,27.362,0,1,1,31.132,58.492a27.053,27.053,0,0,1-17.156-6.05,1.888,1.888,0,0,0-1.738-.333L7.23,53.419l1.962-4.311A1.886,1.886,0,0,0,9,47.216,27.375,27.375,0,0,1,7.445,17.431a1.887,1.887,0,0,0-3.265-1.892,31.153,31.153,0,0,0,1.13,32.987l-3.159,6.94a1.886,1.886,0,0,0,2.194,2.607l8.023-2.1a31.126,31.126,0,0,0,23.1,5.986v16.52a7.933,7.933,0,0,0,7.923,7.924H70.074L82,96.167a1.887,1.887,0,0,0,3.081-1.461v-8.3H88.67a7.933,7.933,0,0,0,7.924-7.924v-36.6a7.932,7.932,0,0,0-7.924-7.924ZM92.82,78.482a4.155,4.155,0,0,1-4.151,4.151H83.2a1.886,1.886,0,0,0-1.887,1.887v6.206L71.994,83.1c-.514-.469-.963-.469-1.974-.469H43.391a4.155,4.155,0,0,1-4.15-4.151V61.192a31.237,31.237,0,0,0,22.318-23.46H88.67a4.155,4.155,0,0,1,4.151,4.151Zm0,0" transform="translate(0 0.001)" fill="#939393"/>
      <path id="Tracé_14" data-name="Tracé 14" d="M308.587,268.669a1.886,1.886,0,0,0-.8-3.592h-.772l-6.084-13.866a1.887,1.887,0,0,0-3.456,0l-6.084,13.866h-.772a1.886,1.886,0,0,0-.8,3.592l-2.266,5.165A1.886,1.886,0,1,0,291,275.349l2.852-6.5h10.694l2.852,6.5a1.886,1.886,0,1,0,3.455-1.516Zm-13.079-3.592,3.691-8.413,3.691,8.413Zm0,0" transform="translate(-233.168 -202.901)" fill="#939393"/>
      <path id="Tracé_15" data-name="Tracé 15" d="M47.289,49.172a1.887,1.887,0,1,0-1.334-.553A1.9,1.9,0,0,0,47.289,49.172Zm0,0" transform="translate(-36.837 -36.833)" fill="#939393"/>
      <path id="Tracé_16" data-name="Tracé 16" d="M101.113,111.9a1.887,1.887,0,1,0,1.814,3.309,21.605,21.605,0,0,0,9.337-10.129,21.609,21.609,0,0,0,9.337,10.129,1.887,1.887,0,1,0,1.814-3.309,17.843,17.843,0,0,1-9.063-12.982h8.376a1.887,1.887,0,0,0,0-3.773h-8.578V87.281a1.887,1.887,0,1,0-3.773,0v7.862h-6.815a1.887,1.887,0,1,0,0,3.773h6.613a17.841,17.841,0,0,1-9.063,12.982Zm0,0" transform="translate(-81.242 -69.284)" fill="#939393"/>
    </g>
    <g id="web-programming" transform="translate(1257.909 881.209)">
      <path id="Tracé_17" data-name="Tracé 17" d="M126.619,201.242a1.549,1.549,0,0,1-1.007-.372L115.547,192.3a1.556,1.556,0,0,1,0-2.369l10.066-8.571a1.555,1.555,0,1,1,2.016,2.368l-8.674,7.387,8.674,7.387a1.556,1.556,0,0,1-1.009,2.74Zm0,0" transform="translate(-89.445 -140.771)" fill="#939393"/>
      <path id="Tracé_18" data-name="Tracé 18" d="M251.264,201.242a1.556,1.556,0,0,1-1.01-2.74l8.674-7.387-8.674-7.387a1.555,1.555,0,0,1,2.016-2.368l10.066,8.571a1.556,1.556,0,0,1,0,2.369l-10.066,8.571a1.549,1.549,0,0,1-1.007.372Zm0,0" transform="translate(-194.219 -140.771)" fill="#939393"/>
      <path id="Tracé_19" data-name="Tracé 19" d="M190.512,185.921a1.584,1.584,0,0,1-.323-.034,1.556,1.556,0,0,1-1.2-1.843l6.273-29.784a1.555,1.555,0,1,1,3.044.641l-6.273,29.784A1.556,1.556,0,0,1,190.512,185.921Zm0,0" transform="translate(-146.966 -119.021)" fill="#939393"/>
      <path id="Tracé_20" data-name="Tracé 20" d="M83.774,83.127H10.444A10.456,10.456,0,0,1,0,72.683V10.444A10.456,10.456,0,0,1,10.444,0h73.33A10.456,10.456,0,0,1,94.218,10.444V72.683A10.456,10.456,0,0,1,83.774,83.127ZM10.444,3.111a7.342,7.342,0,0,0-7.333,7.333V72.683a7.342,7.342,0,0,0,7.333,7.333h73.33a7.342,7.342,0,0,0,7.333-7.333V10.444a7.342,7.342,0,0,0-7.333-7.333Zm0,0" fill="#939393"/>
      <path id="Tracé_21" data-name="Tracé 21" d="M92.663,101.2H1.555a1.555,1.555,0,0,1,0-3.111H92.663a1.555,1.555,0,0,1,0,3.111Zm0,0" transform="translate(0 -76.293)" fill="#939393"/>
      <path id="Tracé_22" data-name="Tracé 22" d="M102.372,44.134a4.923,4.923,0,1,1,4.923-4.923A4.929,4.929,0,0,1,102.372,44.134Zm0-6.734a1.812,1.812,0,1,0,1.812,1.812A1.814,1.814,0,0,0,102.372,37.4Zm0,0" transform="translate(-75.795 -26.67)" fill="#939393"/>
      <path id="Tracé_23" data-name="Tracé 23" d="M34.309,43.919A4.923,4.923,0,1,1,39.232,39,4.928,4.928,0,0,1,34.309,43.919Zm0-6.734A1.812,1.812,0,1,0,36.121,39,1.814,1.814,0,0,0,34.309,37.185Zm0,0" transform="translate(-22.857 -26.503)" fill="#939393"/>
      <path id="Tracé_24" data-name="Tracé 24" d="M170.437,44.348a4.922,4.922,0,1,1,4.923-4.923A4.928,4.928,0,0,1,170.437,44.348Zm0-6.734a1.812,1.812,0,1,0,1.812,1.812A1.813,1.813,0,0,0,170.437,37.614Zm0,0" transform="translate(-128.736 -26.837)" fill="#939393"/>
    </g>
    <path id="cpr_1_" data-name="cpr (1)" d="M135.117,61.719,142.3,49.473c2.875-4.9-4.081-10-7.879-5.654l-8.112,9.273a2.414,2.414,0,0,1-.173.178c.529-1.568,3.118-9.163,3.645-10.764,1.107-3.362-.151-7.547-4.09-8.107L134.2,15.6c2.3-5.09-5.225-9.06-8.147-4.3l-9.471,15.529a5.486,5.486,0,0,0-2.843-1l.28-21.278c.108-5.575-8.378-6.284-9.184-.752l-3.046,20.905a6.1,6.1,0,0,0-1.891-.08L93.462,5.364C91.715.087,83.469,2.215,84.549,7.7l1.286,6.529a1.519,1.519,0,0,0,2.98-.587L87.529,7.11a1.582,1.582,0,0,1,3.051-.788l6.481,19.416c-1.7,1.311-2.069,3.3-1.972,5.316.1,2.182-.075,2.456-.481,2.528-.651.115-1.224-1.845-1.5-2.787a5.718,5.718,0,0,0-1.436-2.655l-1.5-7.625a1.519,1.519,0,0,0-2.98.587l1.118,5.676a6.258,6.258,0,0,0-1.728.18,5.7,5.7,0,0,0-4.311,6.756c.135.79.317,1.755.526,2.823L76.537,27.09c-3.076-4.644-10.476-.439-7.99,4.581l5.779,11.665c-4.032-3.461-10.1,1.506-7.384,6.138l6,10.228a33.254,33.254,0,0,0,10.61,11.047L67.576,85.973a1.519,1.519,0,0,0,2.1,2.2L86.288,72.337c5.68,2.943,11.51,4.577,16.215,9.25-4.806,6.484-9.54,13.023-14.309,19.534a1.519,1.519,0,0,0,2.45,1.795l13.937-19.03c.393.483,14.23,19.041,14.23,19.041a1.519,1.519,0,0,0,2.434-1.816L108.181,83.6A32.214,32.214,0,0,0,94.475,72.61C86.8,69.366,79.947,65.639,75.563,58.165l-6-10.228a1.839,1.839,0,0,1,2.973-2.118l8.11,9.272a4.815,4.815,0,0,0,8.368-4.008c0-.021-.008-.043-.013-.064-.029-.128-2.879-12.8-3.739-17.818-.544-3.177,3.958-4.863,4.931-1.549.526,1.791,1.622,5.516,4.95,4.921,3.224-.577,3.065-3.886,2.98-5.663-.207-4.309,5.008-4.2,5.182.048.077,1.881.22,5.382,3.387,5.564,3.486.206,3.694-3.767,4.647-6.1.978-2.4,4.872-1.751,4.347,1l-.527,2.8c-1.486,4.963,3.156,7.685,6.479,5.061l1.722-1.36c2.753-2.017,4.27,1.419,3.539,3.638-.522,1.586-4.7,13.827-5.593,16.687a1.519,1.519,0,0,0,2.9.91c.229-.73.493-1.547.78-2.42a4.557,4.557,0,0,0,3.615-1.641l8.112-9.273a1.839,1.839,0,0,1,2.973,2.117L132.5,60.182a22.917,22.917,0,0,1-8.489,8.355,8.91,8.91,0,0,1-.764-2.889,1.519,1.519,0,0,0-3.022.306,10.732,10.732,0,0,0,3.119,6.818l.017.016,16.292,15.394a1.519,1.519,0,0,0,2.086-2.208l-15.878-15a25.954,25.954,0,0,0,9.258-9.254ZM84.874,53.6a1.775,1.775,0,0,1-1.942-.505,5.237,5.237,0,0,1-1.326-1.9L71.269,30.323a1.58,1.58,0,0,1,2.736-1.555C77.337,33.8,84.454,44.5,84.454,44.5c.783,3.626,1.477,6.711,1.576,7.153A1.761,1.761,0,0,1,84.874,53.6Zm23.652-24.325a13.823,13.823,0,0,0-.509,1.663c-.219.831-.672,2.554-1.141,2.554h-.011a.438.438,0,0,1-.09-.013c-.34-.261-.41-1.991-.437-2.642a6.368,6.368,0,0,0-1.7-4.667l3.194-21.921a1.583,1.583,0,0,1,3.141.264l-.29,22.091a5.521,5.521,0,0,0-2.162,2.67Zm13,6.22c-.474.35-.931.727-1.391,1.1-1.416,1.137-2.4-.458-2-1.788l.527-2.8a4.877,4.877,0,0,0-.113-2.568l10.087-16.54a1.581,1.581,0,0,1,2.789,1.459l-9.424,20.827c-.162.1-.321.2-.475.315Z" transform="translate(211.734 867.999)" fill="#939393"/>
  </g>
</svg>
